/* XPM */
static char *result[] = {
/* columns rows colors chars-per-pixel */
"100 100 55 1 ",
"  c #010001",
". c #0B0401",
"X c #110601",
"o c #160901",
"O c #1C0C01",
"+ c #251301",
"@ c #291502",
"# c #2D1802",
"$ c #351D01",
"% c #381F02",
"& c #3B2101",
"* c #412501",
"= c #462901",
"- c #492B01",
"; c #502F00",
": c #553200",
"> c #5A3501",
", c #5E3800",
"< c #643C01",
"1 c #693F01",
"2 c #6D4201",
"3 c #724501",
"4 c #764801",
"5 c #794A01",
"6 c #824F01",
"7 c #855102",
"8 c #8A5502",
"9 c #8E5800",
"0 c #945B02",
"q c #9A5F03",
"w c #9E6302",
"e c #A26502",
"r c #AC6B01",
"t c #B16E02",
"y c #B57101",
"u c #BB7401",
"i c #BF7903",
"p c #C07700",
"a c #C47A02",
"s c #C97D01",
"d c #CE8202",
"f c #D48401",
"g c #D98703",
"h c #DE8B01",
"j c #E18D02",
"k c #E59102",
"l c #EB9402",
"z c #EF9802",
"x c #F09702",
"c c #F69C02",
"v c #FC9E02",
"b c #F79C0B",
"n c #FF9F08",
"m c #FFA102",
"M c #FFA009",
/* pixels */
"                                         rmmmmmmmmmmmmmmmmmmmmmmmma-                                ",
"             ..                       ...rvmmmmmmmvmmmmmmmmmmmmmmcd-..                              ",
"           &tcccs#                  &ucccvmmmmvvmmmmMmmmmmmmmmmmmmmmccf>                            ",
"          .&uvvvf$.               ..&immmmnMmmmmvmmmmmmmmmmmmmmmmmmmmmg2. .                         ",
"       -azxxvvmmvzzzf$          :pxxcnmmmmmvmmmmmmmmmmmmmmMMMmmmmmmmmmvzzzh2                        ",
"       -fmmmvvmvmmmmk&        . :fmmmvvmmmmmmmmmmmmmmMmmmmmMmmMmmmmmmmmmmml4                        ",
"       -dvmmmmmmmmmmh&          >dmvcs55555555555rzmmmmMmvu55545555545rcmmk4                        ",
"       -fmmmmmmmmmmmj&          >dvvvuO  .       8kmmmmMmcw    . .   o0zmmz4                        ",
"       -dmmmmmmmmmmmk&          >dmmmxjjjjjjhu-  7lmmmMmmce  Xrjjhhkhhzmmml4                        ",
"       -dnmmmmmmmmMmj&          :dmmmmvvvvvvmf:  8lmMmmmmce  OabMMMmmMmmmml4                        ",
"       -dvmmmmmmmmmmj&          :dmmmmmmmmmmmg:  8lMmmMmmce  oanMmmmmmmmmml4                        ",
"       -fvmmmMMmmmmmj&          >dmmmmvmmMmmmf:  8lmmmmmmcw  XanmmmmmmMmmml4                        ",
"       -dmmmmmmmmmmMj%          :fmmmmmmmmmmMg:  8kmmMmmvce  osvmmmmmMmmmmk5                        ",
"       -dmmmmmmmmMmmj&          >smmmmmmMmmmmg:  8lmmmmmmce  OavmMMmmmmmmml4                        ",
"       -dmmmmmmmmmmmj&          >fvmmmmmmmmmmg:  8lmmmmmmne  Xavmmmmmmmmmmz4                        ",
"       -dmmmmmmmmmmmj&.         :svmmmmmmmmMmf:  8lmmmmmmce  Oavmmmmmmmmmmk4                        ",
"       -dvmvmmmmmmmmk&          :dmmmmvmmmmmmf:  8kmmMmmmce  opmmmmmmmmmmml4                        ",
"       -fvmmmmmmmmmmk&          >fvmmmmmmmmmmf:  8lmmmmmmnw  Opmmmmmmmmmmml4                        ",
"       -dvmmmmmmmmmmk&          -pllzcmmmmmmmh733ezmmmmmmcy333fmmmmmmmmzllg2                        ",
"       -dvmmvmmmmmmmj&              &uvvmvmvmmmmmmmmmmmmmmmMmmmmmmmmmmg<                            ",
"       -dmmmmmmmmmmmj&  O*-=---&----,ammvmmmmmmmmmmmmmmmmmmmmmmmmmmmmmh5----------=#                ",
"       -dmmmmmmmmMmmj&  4zmmmmmmvmmmmvvmmmvmmmmmmmvmmmmmmmmmmMmmmmmmmmmmmMmmMMmmMmme#               ",
"       -fmmmmmmmmmmmk;&=5lmmmmmmvvvvvccnvvmmmmmmmmmmmmmmmvmmmmmmmmMmMmmmmmMmmmmmmmmr-&&#.           ",
"       -fmmmmmmmmmmmmmmMk2+++O+#+++++@+@@rvmmmvvmmmvvvmvmmmmmvmmmmmmmmmmmmMmmmmMmmmmmmmu&           ",
"       -gbbbmmmmmmmmMmmMk2          .@$%$tvmmmnvvvcvvvvvvvnvvvcmvvcmncvccvvncnvvcmvmmmmu-$$+.       ",
"       -gbbbmmmmmMmmj-#%#.          &ucvvvvvmg<%$$$$$$$$$$$$$$$$$&$$$$$$$$$%$%%$$$=fmmmmmccd;       ",
"       -gMbMmmmmmMmMk&           O@+-pvvvvmmvg:    . .O@++o   O+++O.  o++++.      $dmMmmmmmd;+++.   ",
"       -dMMMmmmmmmmmk&          :scvvvvvmd=&&$.      1gvvxw  oiccns- .0lcvj3       $&&-uMmmmmmch:  .",
"       -dbmmmmmmmmmmh&       ...:dmmmvvmmso      ..XX1jvmmw..Oanmma-.oqlmml4.X.       #immmmmmMh:..X",
"  .    -gMmmmmmmmmmmk%      2gccmmmmvi---&     . 7jcck0-*,dmncy;=-tznbg4--6jccx6       $-;;ezMmMvccc",
"       -dMMMmmmmmmmmh%      2hMmmmmmcuo          8lvvl9  -fmmmy+ orcmmg<  3lmmc8          +wMMmmvmmm",
"       -dMMMmmmmmmmmk%      2gMmmmmmnuo          $1339fllkr334pklls542ejllh0432&          +wbmmmmvmm",
".      -fmmmmmmmmmmmh&      2hmmmmmmmyX         .    2jvvce  Opmmmi; .0zmml5     .        +emmmmmmmv",
"       -dvmmmmvvmvmmj&      2hmmmmmmcyo          4sggjcvvvkgggzmmmzhhhkmmmmhgfg2          +rcmmmmvmm",
"       -fvmvvmmmmvvmj&      2hmmmmmmmuo          8lmvmvvvvvmmmmmmmmmmmmmmmmMMMM7          +rcmmmvmmm",
"aaaaaasdzvmmvmmvmmmMbsdaasdidzmmmmmmcuo          8kmvcsttttttrhmmmjyrryrtrizMmM8          +ecmmmvmvm",
"MmvmmmmmvmmmmmmmvmmmmMmMmmmmmmmmmmmmmuX          8lmmz8      oavmmi;.... .3lmmm5   .      +ecmmcmvmm",
"mmmmmmmmmmmmmmvmmmvmmmmmmmmmmmmmmmmmcuo          8lmvl9  #0tttjmMmkytrw&  3lmmm5        . +rcmmmmmmv",
"mmvmmmvmmMmmvvvvvnnmmmmmmmmmvmmmMmmmvuo          8kmvx8  -dMnnvMmmmmmmf< .5kmmM8.       ..+ecmmmmvmm",
"fgfgfgfgcmmmmmmmmmnvcggggggfhcmmMmmmvyo          8lvvl8  -gMvvmmmmmmmmh< .3lmmM5    .   ..+ebmmmmmmv",
"       -fvvvvvmmmmnvj%      2hmmmmmmvyo          8lmvl9  -fvvvmmmmmmmmh, .4lmmc7          #rmmmmmvvm",
"   #588qajjjjjjjjjjhf9885%  1hvmmmmmvyo      .   8lvvl8  =fmmvmmmmmmmmh< .2lmvv7          +ecmmmmmmm",
"   >kmMMe+.      . .7vmvl2. 1hmmmmmmcuo          8lvvl9  -fmmvvmmmmmmmh<  4kmmv7          +ecmmmvmvv",
".  >kmmcu55555555555evmmk2  1jvmmmvmvuo          8lvvl8  -fvmvckkkzmmmh< .4kmmv7          +ezmmmmmmm",
"   :kmmmvmmmvmmmmmmmmvvvk3. 2hmmmmvmvuX          8lmml8  -fmvnt@ Otcmmf< .3kMmn7          +ebMmmvvvv",
"   :kmmmvxxxxxzzzzzlcvvmk2  2gmmmmmmcuo          8lmvz8  -dmvvt@ ormmMh< .4kMmc7   .      @eMmmmmvmm",
"   >kmmze+.  . . ...7vmmk2  <hmmmmmmvuo          8lmml8  -gmmvt@ orcmmg2  4kmmv7     .   .+ecmmmvvvv",
"   ;kmmmr-----=---==0vmmk2. 2hmmmmmmcuo          8kmvlq--<fmvvt@ orcmmh5--7lmvv7          +ecmmmvmmv",
"   >kmmmmmmmmmmmmmmmmmmmk2  2hmmmmmvbuo          8lmmmmmmmmmmmy+ Xtmmmmmmmmmvmv7     .    +emmmmvvmv",
"   >jmmmmmmmmmmmmmmmmmmmk2. 2hmmmmmmmuo          8kmmMmmmmmmmvt+ XrcmmMmmmmmvvc6          +ezmmmmvmv",
"   >kmmcw+..........7mmml2. <hmmmmmmcuo           ............    .............           +wmmmmvmvv",
"   >jmmmw#....  .. .7cmmk2..2hmmmmmmcuo                                                   +wcmmmvvvm",
"   o&--<dzcMmcccnccch>--7kccnmmmmmmmmyo                                          .        @ezmmmmvmv",
"       ;dmmmmmmmmnmmj&  5lmmmmmmmmmmcto..                                              ...#emmmmmmmn",
"       O;<2<<<111<<<>X  5lvmze225gmmmmzzziO                                           @yklbbmmmk51<1",
"             ...        5zmml8. >dmmmmmmmdO...                                      . #ucmMMmmmj:   ",
"     . .            .   5lmmx8X +,557dmmmmkkki;                                   #ujklcmmmf8552+   ",
"                 ..     4zmMx8X .   &ummmMmmmg:  .   .    .   . .                 $dmmmnmMmd-  .    ",
"                        5lmmx8.     O1888aMMmmhhjjkhjhkhjjjhhkhjkhhjjjjkjjkhjjjjjjjbvmndw883+       ",
"                        4zvMx8.    .     rmMmmmmmmmMMMmmmmmMMMMMmmMmMMMMMMmmMMmmMMMMmmmu&           ",
"                        4lvml8.          2wqqicmmmMMmmmMmmMMMMmmmmmmmmmmmmmmmmmmmmmaww02+           ",
"                        4xmmb8.              wcmmmmmmMmMmMMMMMMmmmmmmmmmmmmmmmmmmmne+               ",
"                        5lmmz8.              1rttytttttttttttyytttttrydcmmmiyrtyttr3O               ",
"                        5lmmz8.                                      .0zmml3                        ",
"                        4zmmx8.                                      X0bmml4                        ",
"                        4zmmx8. .  .                                 X0lmml4                        ",
"                        4lvmb8.          <qqw4#      &7w99,          .0lMml4                        ",
"                        4zmml8.          tbbMf>      2jbmmw          .9bmml4                        ",
"                        4xmml8.          tMMMg:      2jMmbw          Xqzmml4                        ",
"                        4lmmb8.          eMMMg>      3hMmzw   .      .0zmml4                        ",
"                        5xMMb8.          tbbMg:      2jMmMe          .0xmml4                        ",
"                        4lMMl8.          tbbMg:      2hMMMw          .0xmml4                        ",
"                        4xmml8.    .     rMmmf:      3hMmzw          .qbnMl3                        ",
"                        4xmmz8.          rmmmf:      2jMmmw     .    X0lmml4                        ",
"                        4xMmb8.   .      rmmmg:      3hmmmw          .8bmml4                        ",
"                        4xmMl8.          rmmmg:      2kmmmw          .0lmml4                        ",
"                        4xmmb8.          rvmmf:      4hmmzw          .0bMml4                        ",
"                        4lmml8.          rvmmf:      2hmmMw    .     .8lmml4                        ",
"                        5xMmb8.          rvmmf:      2jmmcw      .   .qbmMl4                        ",
"                        4lmnx8.   .      rvmmf:      3jMmcw          X0bmml4                        ",
"                        4lmmz8.          ebbmf:      2jmnbe          .0cMMl4                        ",
"                        5lmmz8X .   .    tbbmf:      2hvmbe          .0lMMl4                        ",
"                        5lMMl0.          rbMmf:      2jmmbe          .0zmMl4                        ",
"                        5lMMl8.          tMMmf:      2hmmce          X0zmml4                        ",
"                        5lMmc8.          rmmvf:      2hvmnw    .     X0zmMz4                        ",
"                        5lmml8X   .      rmmmf:      2jmmcw          .0zmMk4                       .",
"                        5lmmx8.          tbmmg:      2jmmce          X0xmMl4                    .   ",
" .                      5xmMx8.          tMMmf:      2hvmce          X0zmMl4                        ",
"                        4xmml8.          rvmmf:      2hmmcw          .qbmml4                        ",
"                        4xmMz8.    . .   rvvmf:      2hmmnw     .    X8bmml4                        ",
"                        4xMmb8.          rmmmf:      2jvmce          .0bmml5                        ",
"           O<88888888888rxmmx8X          rvmmg:      2jmmce          .8lvmxe88888888888<O           ",
"           &unmmmmmmmmmMmMMMl8.          rvmmf:      2hmmcw          .qlvmmmMmmmmmmmMmmu&           ",
"       O<457ukllkkklllklklklg5.          rmvmf:      2hmmcw          .8gllkllkllkkklkkki755,O       ",
"       -dmmvu#  .     .    .             rmmmf:      2jmMce             .       .    .#unmmd-       ",
"       -dmmmu@                           rmmmf:      2hmmmw                           #ucmmd-       ",
"       -fvvvu#                           rmmmf:      2hMmcw                           @icmmd-       ",
"       -scccu:=-==---------------=-------rcmcd;      2fmmze==------------------------=;ixccd-       ",
"         ..&ummmmMmmMmmmmmmmmmmmmmmmmmmmmdo...        ...-fMmmmmmmMMmmmmmmMmmmmmmmmmmmmu&.          ",
"           &ummmmmmmmmmMmMmmmmMmmMmmmmMmMdo              -fmmmMmMMMMMmmMmmmmMmmmmmMmmmmu&           "
};
